<svg version="1" xmlns="http://www.w3.org/2000/svg" width="1041.333" height="1041.333" viewBox="0 0 781.000000 781.000000"><path d="M1.1 101.7c0 .4 4.2 3.7 9.4 7.3 5.2 3.6 9.5 6.8 9.5 7.2 0 .5.7.8 1.5.8s1.5.3 1.5.7c0 .5 1.7 1.9 3.7 3.3 2.1 1.4 4.5 3.1 5.3 3.7.8.7 10.1 7.6 20.5 15.3 10.5 7.8 20.1 15 21.5 16 1.4 1 11.3 8.4 22 16.4 26.7 19.9 48.3 35.9 49.5 36.8 2.2 1.7 84.9 63.4 89.3 66.6 1.3.9 5.1 3.8 8.5 6.3 12.2 9.2 57.3 42.5 60.7 44.9 1.9 1.3 4 2.8 4.5 3.3.6.4 3.7 2.8 7 5.3s6.2 4.8 6.5 5.2c1.1 1.2-3.2-1.7-18-12.3-8.5-6.1-21.1-14.6-28-19-6.9-4.3-15.4-9.7-19-12-12.1-7.9-57.5-36.7-59.5-37.9-1.1-.6-2.2-1.3-2.5-1.6-.3-.3-5.2-3.5-10.9-7l-10.4-6.5h-42.4c-23.2 0-42.3.1-42.3.1 0 .1 6.4 3.4 14.3 7.4 71.3 36.2 92.9 47.2 117.2 59.5 70.3 35.8 158.9 80.8 168.1 85.4l7.1 3.6-4.9 15c-2.7 8.2-7.1 22-9.9 30.5-2.8 8.5-5.2 16.2-5.4 17-.2.8-1.2 4-2.3 7-1.1 3-3.9 11.3-6.1 18.5-3.8 11.7-14.2 44-31.3 96.5-3.3 10.2-6.4 19.6-6.9 21-.9 2.5-22.5 69.6-25.9 80.4-1 3.2-1.5 5.5-1.1 5 .4-.5 7.2-9.5 15.1-19.9 7.9-10.5 17.1-22.4 20.4-26.6 5.8-7.2 28.4-36.2 37.1-47.4 2.2-2.9 9.9-12.8 17.1-22.1 25.4-32.8 32.4-42 32.4-42.8 0-.3-1.1-.1-2.5.4-2.4.9-13.3 3.6-18.5 4.6-1.4.3-5 1.1-8 1.9-3 .8-6.6 1.6-8 1.8-1.4.3-4.5 1-7 1.7s-5.6 1.4-7 1.7c-1.4.2-4.7 1.1-7.4 1.9-4.8 1.4-10 1.9-6.6.7 2.8-1.1 76.5-27.5 89-32 6.9-2.4 14.1-5 16-5.7 1.9-.7 13-4.7 24.5-8.9 11.6-4.1 31.6-11.3 44.5-16 12.9-4.7 29.4-10.6 36.5-13.1 7.2-2.6 13.7-5 14.5-5.3.8-.3 1.7-.7 2-.8.3-.1 1.2-.4 2-.8.8-.3 4.4-1.5 8-2.8 3.6-1.2 7.9-2.7 9.5-3.4 1.7-.7 8.4-3.1 15-5.4 6.6-2.3 12.5-4.5 13.2-4.9.7-.4 3-7.3 5.2-15.2 2.2-8 6.5-23.5 9.6-34.5 3.1-11 5.8-20.8 6-21.8.2-1 2.2-8.4 4.5-16.5 4-14.3 7.7-27.8 11.9-43.2 1.1-4.1 3.6-13.8 5.5-21.4 3.2-12.5 4.6-16.7 4.6-14 0 .5-.6 4.3-1.4 8.4-.8 4.1-1.7 9.5-2.1 12-1.4 9.8-1.7 11.6-2.5 15.3-.9 4.2-.1 5.2 3.4 4.3 1.3-.3 4.1-.8 6.2-1.2 2.1-.3 9.3-1.7 15.9-3.1 6.6-1.4 12.9-2.7 14-2.8 1.1-.2 4.3-.9 7-1.5 2.8-.7 6.4-1.4 8-1.7 1.7-.2 4.8-.9 7-1.4 2.2-.5 5.1-1.2 6.5-1.5 9.2-1.9 17.1-3.4 20.5-4 2.2-.3 4.7-.8 5.5-.9.8-.2 3.6-.7 6.3-1.1 2.6-.3 4.7-.9 4.7-1.3-.1-.3-4-3.3-8.8-6.5-4.8-3.2-14.8-10-22.2-15-7.4-5-13.7-9.3-14-9.6-.3-.3-9.8-6.8-21.2-14.4l-20.7-13.8-7.3 2c-4 1.1-22.8 6.9-41.8 12.7-19 5.9-35.8 11.1-37.5 11.5-1.6.5-7.5 2.3-13 4-5.5 1.8-11.3 3.5-13 4-3.8 1-23.9 7.3-24.4 7.6-.2.2 3.5 5.4 8.3 11.6 4.7 6.2 14.3 18.7 21.2 27.8 6.9 9.1 13.6 17.7 15 19.2 4.8 5.5.7 2.6-7.6-5.3-16.8-16-36.6-34.7-40-37.9-1.9-1.8-9.8-9.2-17.5-16.5-7.7-7.3-15.8-15-18-17-4.2-3.9-14.3-13.5-31.1-29.4-13.4-12.8-38-36.1-42.4-40.1-6.1-5.7-32.2-30.3-36.9-34.9l-4.5-4.3-13.5-1.9c-20-2.8-20.2-2.9-25.1-3.4-2.5-.3-5.6-.8-7-1-1.4-.3-4.7-.7-7.5-1-2.7-.3-5.7-.8-6.5-1-.8-.3-3.7-.7-6.5-.9-2.7-.3-9.7-1.2-15.5-2-5.8-.9-12.3-1.8-14.5-2.1-2.2-.3-5.3-.7-7-1-4.6-.7-29.4-4.1-43.5-6-1.4-.2-4.3-.6-6.5-.9-2.2-.3-11-1.5-19.5-2.6-8.5-1.2-16.5-2.3-17.6-2.5-1.2-.2-4.8-.7-8-1-3.3-.4-6.8-.9-7.8-1.1-1.9-.3-11.5-1.6-22.1-3-2.7-.3-5.9-.8-7-1-1.1-.2-4-.7-6.5-1-2.5-.3-5.7-.7-7.1-1-1.5-.2-4.7-.6-7-.9-2.4-.3-5.5-.8-6.9-1-3.1-.5-17.3-2.4-22.5-3-2.2-.3-5.3-.7-7-1-6.1-1-10.3-1.6-13.6-1.9-3.4-.4-11.7-1.5-15.3-2.2-1-.2-4.4-.6-7.5-.9-3.1-.4-6.3-.8-7.1-1-.8-.2-4.2-.7-7.5-1-3.3-.3-6.7-.8-7.5-1-.8-.3-3.7-.7-6.5-1-2.7-.3-7.7-1-11-1.5s-8.2-1.2-11-1.5c-2.7-.3-5.7-.8-6.5-1-.8-.2-4-.7-7-1-3-.3-6.3-.8-7.2-1.1-1-.3-1.8-.2-1.7.3zM325.5 343c1 1.1 1.6 2 1.3 2-.3 0-1.3-.9-2.3-2-1-1.1-1.6-2-1.3-2 .3 0 1.3.9 2.3 2z"/></svg>